<?xml version="1.0" standalone="no"?>
<!DOCTYPE svg PUBLIC "-//W3C//DTD SVG 20010904//EN"
 "http://www.w3.org/TR/2001/REC-SVG-20010904/DTD/svg10.dtd">
<svg version="1.0" xmlns="http://www.w3.org/2000/svg"
 width="500.000000pt" height="667.000000pt" viewBox="0 0 500.000000 667.000000"
 preserveAspectRatio="xMidYMid meet">

<g transform="translate(0.000000,667.000000) scale(0.100000,-0.100000)"
fill="#000000" stroke="none">
<path d="M0 3335 l0 -3335 2500 0 2500 0 0 3335 0 3335 -2500 0 -2500 0 0
-3335z m2605 1865 c3 -5 1 -10 -4 -10 -6 0 -11 5 -11 10 0 6 2 10 4 10 3 0 8
-4 11 -10z m-71 -235 c23 -17 15 -42 -16 -54 -18 -6 -25 -4 -34 13 -12 23 -1
56 19 56 7 0 20 -7 31 -15z m314 -236 c-2 -6 -8 -10 -13 -10 -5 0 -11 4 -13
10 -2 6 4 11 13 11 9 0 15 -5 13 -11z m-17 -82 c-13 -13 -15 1 -4 30 7 17 8
17 11 -1 2 -10 -1 -23 -7 -29z m46 -19 c-3 -8 -6 -5 -6 6 -1 11 2 17 5 13 3
-3 4 -12 1 -19z m-88 -10 c-13 -13 -26 -19 -27 -15 -6 12 19 37 36 37 11 0 9
-6 -9 -22z m4 -90 c2 -13 8 -32 12 -43 5 -11 4 -16 0 -12 -5 4 -15 -3 -22 -15
-11 -20 -12 -16 -11 39 2 61 11 74 21 31z m73 -15 c-7 -7 -26 7 -26 19 0 6 6
6 15 -2 9 -7 13 -15 11 -17z m-96 -99 c0 -20 -18 -54 -43 -81 -17 -19 -18 -23
-5 -23 12 0 16 -11 15 -52 -2 -103 19 -242 34 -232 5 3 9 0 9 -5 0 -6 4 -11 9
-11 11 0 31 55 31 86 0 13 5 24 11 24 5 0 7 -4 4 -10 -3 -5 -2 -10 3 -10 6 0
8 -8 5 -19 -8 -30 15 -34 47 -8 22 19 26 26 15 31 -20 7 -19 19 5 46 11 13 20
25 20 27 0 7 -25 -2 -32 -12 -4 -5 -5 6 -2 26 3 19 1 52 -4 72 -6 20 -8 37 -6
37 12 0 72 -150 67 -168 -3 -12 3 -28 15 -40 11 -11 18 -23 15 -25 -3 -3 4 -3
16 0 16 4 21 1 21 -15 0 -29 16 -36 32 -14 20 28 45 34 51 11 3 -11 14 -19 26
-19 18 0 19 3 10 29 -7 19 -22 34 -42 42 l-32 13 45 4 c37 3 48 -1 62 -18 10
-12 18 -31 18 -43 0 -24 -27 -57 -46 -57 -7 0 -35 -7 -60 -16 -43 -15 -50 -15
-81 0 -38 18 -44 46 -10 46 21 1 21 1 4 15 -11 7 -26 11 -35 7 -14 -5 -15 -3
-5 10 18 21 6 29 -20 14 -70 -39 -97 -60 -97 -76 0 -10 -13 -28 -30 -40 -33
-24 -40 -60 -14 -81 8 -7 22 -26 30 -42 14 -27 14 -30 -10 -51 -13 -13 -34
-41 -45 -62 -12 -22 -27 -48 -35 -59 -10 -15 -11 -29 -4 -55 l10 -35 20 25
c12 14 32 49 45 78 26 55 42 67 22 16 -6 -16 -17 -53 -24 -82 -12 -50 -11 -53
8 -67 12 -8 28 -15 35 -15 8 0 26 -9 40 -21 25 -19 27 -19 33 -2 11 26 11 65
0 59 -15 -9 -16 11 -16 172 l0 154 34 14 c30 12 32 12 27 -2 -14 -36 -18 -94
-7 -94 6 0 11 12 11 28 l1 27 14 -25 c21 -36 18 -76 -11 -192 -28 -105 -27
-113 1 -203 3 -11 -3 -4 -14 15 l-20 35 -1 -80 0 -80 -19 24 -19 25 -31 -69
c-29 -63 -30 -70 -16 -92 20 -30 29 -29 54 3 l21 27 0 -55 c0 -40 -5 -59 -18
-71 -17 -16 -21 -15 -55 17 l-37 33 -6 -34 c-4 -21 -2 -39 5 -46 6 -6 11 -15
11 -21 0 -5 -6 -2 -13 7 -10 15 -16 16 -39 5 -16 -7 -28 -19 -28 -27 0 -8 -6
-11 -15 -7 -12 4 -15 -3 -15 -29 0 -19 -4 -35 -10 -35 -5 0 -9 3 -9 8 1 4 1
19 0 35 -1 24 -3 26 -21 15 -10 -7 -22 -9 -26 -6 -8 8 36 108 48 108 4 0 8 26
9 58 0 33 8 74 19 97 l19 40 0 -33 c1 -23 5 -32 14 -29 6 2 11 10 9 17 -1 6 7
26 18 45 24 39 26 85 5 125 -18 35 -25 39 -18 10 6 -23 -14 -53 -30 -43 -6 4
-3 11 8 19 10 8 15 17 11 21 -16 16 -94 -87 -126 -164 -38 -93 -46 -103 -74
-102 l-21 0 22 11 c15 7 29 34 47 90 31 93 30 88 11 88 -17 0 -19 12 -5 26 8
8 6 25 -5 58 -16 46 -13 86 6 86 5 0 9 -23 9 -50 0 -48 1 -50 21 -38 17 11 23
11 26 0 3 -6 9 -10 13 -7 5 3 7 12 4 19 -3 8 -1 17 5 21 16 9 13 32 -5 39 -12
5 -15 2 -10 -10 5 -14 4 -15 -9 -4 -16 14 -21 45 -5 35 6 -3 10 1 10 10 0 14
-6 16 -27 10 -38 -9 -65 -38 -79 -83 -11 -34 -12 -35 -13 -9 -1 15 6 41 14 58
15 27 14 32 -3 54 l-19 24 -12 -38 c-6 -21 -22 -50 -36 -65 -14 -15 -25 -35
-25 -45 0 -9 -6 -25 -14 -36 -11 -16 -13 -8 -13 58 0 71 1 75 19 66 14 -8 20
-6 24 8 3 10 12 33 20 51 8 18 11 39 7 45 -4 7 -6 25 -5 42 l3 30 -26 -30
c-14 -16 -30 -41 -36 -55 -9 -22 -11 -23 -20 -8 -7 13 -17 16 -39 11 -19 -3
-36 0 -47 8 -9 8 -14 9 -11 3 12 -20 48 -114 43 -114 -2 0 -11 12 -19 28 -10
17 -15 21 -16 11 0 -9 -7 -22 -15 -29 -18 -15 -19 -7 -4 21 14 27 2 62 -18 54
-36 -13 -82 80 -54 108 8 8 11 7 11 -4 0 -8 20 -21 45 -30 l45 -16 20 41 c11
23 20 51 20 62 0 11 7 29 16 40 15 19 16 19 9 -1 -9 -26 -35 -114 -42 -142 -6
-26 14 -32 23 -8 4 8 10 13 15 10 4 -3 16 9 26 27 13 25 18 29 21 16 3 -15 8
-13 32 12 37 38 59 149 42 209 -17 55 -15 66 13 79 14 6 25 18 25 27 0 20 -12
19 -43 -5 l-25 -20 -5 21 c-5 18 2 25 44 42 47 20 50 24 45 50 -4 18 -2 26 5
21 7 -4 9 4 7 22 -2 16 -8 28 -13 27 -6 -1 -11 7 -11 18 0 22 7 24 24 7 15
-15 16 9 2 48 -15 38 -5 42 15 5 8 -17 20 -31 25 -31 15 0 49 41 77 93 27 48
43 60 43 31z m222 -223 c12 -19 16 -31 10 -27 -19 11 -72 109 -72 131 0 12 8
2 21 -24 11 -25 29 -61 41 -80z m-211 62 c-9 -16 -10 -14 -11 12 0 21 3 26 11
18 8 -8 8 -16 0 -30z m56 11 c-3 -3 -12 -4 -19 -1 -8 3 -5 6 6 6 11 1 17 -2
13 -5z m-15 -61 c6 -8 3 -13 -11 -18 -41 -13 -61 -14 -60 -2 1 18 17 54 18 40
2 -23 31 -14 32 10 1 20 2 20 6 2 3 -11 9 -25 15 -32z m-265 15 c-3 -8 -6 -5
-6 6 -1 11 2 17 5 13 3 -3 4 -12 1 -19z m-23 -44 c9 -24 2 -26 -12 -4 -7 11
-8 20 -3 20 5 0 12 -7 15 -16z m338 -56 c-7 -7 -12 -8 -12 -2 0 6 3 14 7 17 3
4 9 5 12 2 2 -3 -1 -11 -7 -17z m107 1 c-16 -10 -23 -4 -14 10 3 6 11 8 17 5
6 -4 5 -9 -3 -15z m71 1 c0 -13 -30 -40 -43 -40 -7 0 -4 5 6 11 9 5 17 19 17
30 0 11 5 17 10 14 6 -3 10 -10 10 -15z m200 -39 c0 -6 -4 -13 -10 -16 -5 -3
-10 1 -10 9 0 9 5 16 10 16 6 0 10 -4 10 -9z m-798 -109 c-2 -34 -8 -60 -13
-56 -10 6 -12 127 -2 138 13 13 19 -19 15 -82z m57 -22 c-18 -38 -29 -50 -29
-32 0 9 38 72 44 72 2 0 -5 -18 -15 -40z m411 8 c0 -11 -42 -38 -51 -32 -14 8
14 43 33 41 10 -1 18 -5 18 -9z m300 -37 c-6 -12 -22 -24 -35 -27 -17 -4 -27
-15 -31 -33 -3 -14 -12 -39 -20 -56 -8 -16 -12 -21 -8 -10 3 11 9 40 12 64 4
36 9 45 34 53 15 6 34 20 40 32 7 12 13 16 15 9 3 -7 -1 -21 -7 -32z m-403 -3
c-3 -8 -6 -5 -6 6 -1 11 2 17 5 13 3 -3 4 -12 1 -19z m-686 -58 c20 -6 42 -17
49 -24 13 -16 3 -89 -11 -80 -16 10 -9 -28 11 -61 17 -28 18 -34 5 -39 -21 -8
-19 -26 3 -26 13 0 14 -2 4 -9 -21 -13 15 -43 46 -39 30 4 43 -21 15 -28 -10
-3 -26 -22 -35 -42 -10 -20 -17 -30 -17 -20 -1 14 -5 15 -31 5 -23 -9 -33 -8
-42 1 -9 9 -7 16 10 32 26 25 27 28 6 52 -16 17 -18 17 -48 -1 -17 -10 -42
-22 -56 -26 -23 -7 -22 -6 8 19 17 15 32 36 32 47 0 18 -1 17 -35 -2 -19 -12
-45 -33 -58 -48 -12 -15 -29 -31 -37 -36 -8 -5 2 10 23 33 20 23 38 47 38 52
3 19 5 25 21 55 23 45 29 81 18 111 -8 19 -7 30 1 40 10 12 9 13 -5 8 -12 -4
-16 0 -16 15 0 17 6 21 33 21 17 0 48 -5 68 -10z m365 -37 c-6 -19 -44 -48
-52 -40 -5 5 49 64 54 61 2 -2 1 -11 -2 -21z m391 -45 c-3 -8 -6 -5 -6 6 -1
11 2 17 5 13 3 -3 4 -12 1 -19z m240 -60 c-3 -8 -6 -5 -6 6 -1 11 2 17 5 13 3
-3 4 -12 1 -19z m-631 -47 c-11 -39 -26 -64 -26 -44 0 13 29 83 34 83 2 0 -1
-18 -8 -39z m781 17 c-3 -8 -6 -5 -6 6 -1 11 2 17 5 13 3 -3 4 -12 1 -19z
m-114 -18 c39 -15 47 -27 22 -36 -14 -6 -73 33 -74 49 -1 5 2 7 7 5 4 -2 24
-10 45 -18z m-133 -38 c0 -11 6 -32 14 -48 8 -16 17 -42 20 -59 4 -16 3 -23 0
-15 -30 67 -53 113 -54 103 0 -15 -20 -18 -20 -3 0 13 22 39 33 40 4 0 7 -8 7
-18z m-610 -111 c-5 -11 -10 -38 -10 -60 0 -22 -4 -42 -10 -46 -12 -7 -1 95
13 113 15 18 19 14 7 -7z m-596 -50 c9 -11 8 -13 -4 -9 -8 2 -16 18 -17 34 -1
18 0 22 4 9 3 -11 10 -26 17 -34z m201 19 c-8 -26 4 -100 16 -100 5 0 9 8 10
18 0 10 6 4 15 -15 8 -18 20 -33 27 -33 7 0 30 -17 51 -39 27 -28 34 -41 25
-46 -7 -5 -10 -4 -6 2 12 20 -73 80 -95 67 -6 -4 -8 -3 -4 4 7 11 -11 28 -21
18 -3 -3 8 -21 26 -41 17 -20 31 -38 31 -40 0 -3 -11 -5 -24 -5 -17 0 -29 9
-38 27 -7 14 -19 29 -27 31 -11 4 -13 -4 -8 -37 5 -37 1 -47 -24 -76 -19 -22
-27 -39 -23 -51 5 -15 4 -16 -5 -4 -8 12 -11 12 -17 -3 -7 -20 -24 -23 -24 -4
0 7 14 24 30 39 18 16 28 32 24 41 -3 8 -1 18 5 22 6 3 11 1 11 -6 0 -7 3 -10
6 -7 3 3 0 15 -7 25 -9 15 -8 26 6 52 19 38 17 42 -24 43 -25 1 -31 4 -25 17
3 9 8 24 11 33 3 10 14 20 24 23 10 4 19 12 19 20 0 13 26 45 36 45 3 0 2 -9
-1 -20z m-98 -12 c-3 -8 -6 -5 -6 6 -1 11 2 17 5 13 3 -3 4 -12 1 -19z m-69
-183 c-2 -1 -14 -8 -28 -15 -25 -13 -25 -13 -6 8 10 12 23 19 28 16 5 -3 8 -7
6 -9z m93 -22 c-10 -17 -10 -16 -11 3 0 23 13 41 18 25 2 -6 -1 -18 -7 -28z
m1239 -55 c0 -3 -9 -8 -19 -11 -21 -5 -48 33 -37 51 6 10 56 -27 56 -40z
m-1170 8 c0 -2 -7 -7 -16 -10 -8 -3 -12 -2 -9 4 6 10 25 14 25 6z m-406 -131
c-10 -8 -25 -15 -33 -15 -11 0 -9 4 5 15 10 8 25 15 33 15 11 0 9 -4 -5 -15z
m1676 -69 c7 -14 56 -60 109 -103 103 -82 99 -90 -9 -18 -63 42 -133 113 -160
164 l-12 24 29 -21 c16 -11 35 -32 43 -46z m-886 -13 c-7 -16 -14 -33 -14 -40
0 -6 -17 -22 -37 -34 -21 -13 -54 -34 -73 -46 -19 -13 -45 -27 -57 -33 -18 -7
-23 -18 -23 -49 0 -22 -5 -43 -11 -47 -14 -8 -30 16 -24 36 3 8 -14 -5 -37
-30 -43 -47 -43 -41 4 24 15 21 30 53 34 70 5 29 11 34 62 49 42 12 73 32 117
71 68 62 80 68 59 29z m-471 -195 c44 -21 31 -31 -32 -25 -50 6 -61 4 -76 -13
-23 -26 -39 -26 -23 0 7 11 31 26 53 34 51 18 46 18 78 4z m525 2 c15 0 15 -2
1 -15 -18 -18 -46 -11 -46 11 0 9 6 13 14 9 8 -3 22 -5 31 -5z m-713 -70 c3
-5 2 -10 -4 -10 -5 0 -13 5 -16 10 -3 6 -2 10 4 10 5 0 13 -4 16 -10z m1306
-76 c-15 -34 -20 -28 -14 14 4 23 9 30 16 23 7 -7 7 -18 -2 -37z m88 2 c34
-42 40 -89 17 -121 -12 -16 -14 -14 -18 29 -4 29 -14 56 -27 70 -21 22 -27 47
-14 59 3 4 7 6 9 5 1 -2 16 -20 33 -42z m-1269 26 c0 -15 -24 -32 -46 -32 -13
0 -26 -4 -29 -10 -12 -19 -22 -10 -18 14 4 19 13 26 37 29 17 2 37 5 44 5 6 1
12 -2 12 -6z m1945 -228 c-2 -30 -10 -63 -16 -72 -8 -14 -9 -12 -5 10 3 14 8
34 12 45 3 10 -4 1 -16 -19 -17 -31 -26 -38 -51 -38 -35 0 -44 16 -31 61 l10
34 2 -35 c1 -19 4 -28 7 -19 3 11 12 15 29 11 21 -4 27 1 42 37 9 22 18 41 20
41 1 0 0 -25 -3 -56z m-685 -503 c0 -5 -4 -21 -10 -35 -15 -40 -30 -32 -17 9
9 32 27 48 27 26z m-200 -46 c0 -14 -6 -25 -14 -25 -9 0 -12 8 -8 25 2 14 8
25 13 25 5 0 9 -11 9 -25z m-187 -17 c-3 -18 -20 -69 -37 -113 -24 -63 -43
-92 -89 -140 -58 -59 -58 -59 -13 -6 25 29 46 62 46 72 0 11 13 45 29 77 16
31 34 76 41 100 15 49 32 57 23 10z m277 -17 c-10 -20 -30 -37 -30 -26 0 11
25 45 33 45 4 0 3 -9 -3 -19z m-170 -75 c0 -2 -8 -10 -17 -17 -16 -13 -17 -12
-4 4 13 16 21 21 21 13z"/>
<path d="M2657 4263 c-7 -36 -2 -40 21 -20 10 10 22 14 26 10 5 -5 7 1 4 12
-2 11 -13 21 -24 23 -17 2 -23 -3 -27 -25z"/>
<path d="M2702 4166 c-12 -26 -5 -96 9 -96 5 0 9 27 9 60 0 33 -2 60 -3 60 -2
0 -9 -11 -15 -24z"/>
<path d="M2560 3999 c0 -5 5 -7 10 -4 6 3 10 8 10 11 0 2 -4 4 -10 4 -5 0 -10
-5 -10 -11z"/>
<path d="M2624 3965 c-4 -8 -3 -23 1 -32 11 -29 15 -183 4 -183 -7 0 -14 46
-10 73 0 4 -4 7 -9 7 -7 0 -7 7 0 21 15 27 4 73 -15 65 -9 -3 -12 0 -9 8 3 8
1 17 -5 21 -6 3 -12 -2 -12 -12 -6 -74 -10 -104 -19 -146 -9 -44 -4 -72 16
-96 2 -2 15 6 30 18 31 25 43 21 37 -13 -3 -13 0 -27 6 -30 11 -7 18 17 19 73
1 19 8 41 15 50 8 9 17 23 20 31 4 11 6 9 6 -5 2 -35 21 5 21 45 0 27 3 32 11
20 8 -12 10 -12 7 5 -2 13 -13 22 -33 25 -22 4 -34 14 -44 38 -16 35 -28 41
-37 17z"/>
<path d="M2731 3818 c-7 -12 -17 -35 -22 -52 l-9 -31 32 32 c25 26 30 36 22
53 l-9 20 -14 -22z"/>
<path d="M2577 3664 c-13 -13 -7 -24 14 -24 11 0 19 5 17 12 -5 14 -22 21 -31
12z"/>
<path d="M2466 3544 c-4 -9 -4 -19 -1 -22 2 -3 7 3 11 12 4 9 4 19 1 22 -2 3
-7 -3 -11 -12z"/>
<path d="M2747 3147 c-14 -21 -14 -27 -2 -43 13 -18 14 -17 25 8 8 17 9 32 3
43 -9 15 -11 14 -26 -8z"/>
<path d="M2087 3824 c4 -16 7 -41 7 -56 -1 -15 3 -25 7 -22 5 3 9 -6 9 -20 0
-14 -4 -26 -9 -26 -15 0 1 -50 20 -60 15 -9 21 -5 34 21 9 17 12 29 7 25 -5
-3 -14 12 -21 33 -14 48 -14 64 0 55 6 -3 15 0 20 7 21 33 5 55 -44 64 -38 7
-38 7 -30 -21z"/>
</g>
</svg>
